<svg xmlns="http://www.w3.org/2000/svg" width="1024" height="512" viewBox="0 0 1024 512">
  <!-- Ocean base -->
  <rect width="1024" height="512" fill="#1a5276"/>
  
  <!-- Noise filter for texture -->
  <filter id="noise" x="0%" y="0%" width="100%" height="100%">
    <feTurbulence type="fractalNoise" baseFrequency="0.05" numOctaves="2" seed="5"/>
    <feDisplacementMap in="SourceGraphic" scale="10"/>
  </filter>
  
  <!-- Continents -->
  <g opacity="0.9" filter="url(#noise)">
    <!-- North America -->
    <path d="M250,80 C270,90 280,110 300,130 C320,150 330,170 350,180 C380,195 400,210 380,230 C350,260 330,270 300,280 C280,290 250,300 230,280 C210,260 200,240 190,220 C180,200 170,180 180,160 C190,140 220,100 250,80 Z" fill="#2ecc71"/>
    
    <!-- South America -->
    <path d="M320,280 C340,290 350,310 360,330 C370,350 380,370 370,390 C360,410 350,430 330,440 C310,450 290,440 270,430 C250,420 240,400 230,380 C225,360 220,340 230,320 C240,300 260,290 280,285 C300,280 310,275 320,280 Z" fill="#2ecc71"/>
    
    <!-- Europe -->
    <path d="M500,120 C520,130 530,140 540,160 C550,180 555,200 545,220 C535,240 520,245 505,250 C490,255 470,260 450,250 C430,240 420,220 410,200 C405,180 400,160 410,140 C420,120 450,110 470,115 C490,120 490,115 500,120 Z" fill="#2ecc71"/>
    
    <!-- Africa -->
    <path d="M500,230 C520,240 535,250 545,270 C555,290 560,310 555,330 C550,350 540,370 520,380 C500,390 480,385 460,375 C440,365 430,345 420,325 C415,305 410,285 420,265 C430,245 460,235 480,230 C490,228 490,225 500,230 Z" fill="#2ecc71"/>
    
    <!-- Asia -->
    <path d="M560,120 C590,130 610,140 630,160 C650,180 660,200 670,220 C680,240 690,260 680,280 C670,300 650,310 630,320 C610,330 590,335 570,325 C550,315 540,295 530,275 C520,255 515,235 525,215 C535,195 550,140 560,120 Z" fill="#2ecc71"/>
    
    <!-- Australia -->
    <path d="M750,320 C765,325 775,335 780,350 C785,365 790,380 785,395 C780,410 770,420 755,425 C740,430 725,425 710,420 C695,415 685,405 680,390 C675,375 670,360 680,345 C690,330 710,325 725,320 C735,318 740,317 750,320 Z" fill="#2ecc71"/>
    
    <!-- Antarctica -->
    <path d="M300,460 C350,470 400,475 450,470 C500,465 550,460 600,465 C650,470 700,475 675,445 C650,415 600,410 550,405 C500,400 450,405 400,410 C350,415 300,420 325,445 C340,460 280,455 300,460 Z" fill="#f7f9f9"/>
  </g>
  
  <!-- Cloud cover -->
  <g opacity="0.4">
    <ellipse cx="200" cy="100" rx="70" ry="30" fill="#f7f9f9"/>
    <ellipse cx="500" cy="150" rx="90" ry="40" fill="#f7f9f9"/>
    <ellipse cx="300" cy="250" rx="60" ry="25" fill="#f7f9f9"/>
    <ellipse cx="700" cy="200" rx="80" ry="35" fill="#f7f9f9"/>
    <ellipse cx="400" cy="350" rx="75" ry="30" fill="#f7f9f9"/>
    <ellipse cx="600" cy="300" rx="65" ry="30" fill="#f7f9f9"/>
  </g>
  
  <!-- Atmosphere glow -->
  <radialGradient id="atmosphereGlow" cx="50%" cy="50%" r="50%" fx="50%" fy="50%">
    <stop offset="80%" stop-color="rgba(52, 152, 219, 0)" />
    <stop offset="100%" stop-color="rgba(41, 128, 185, 0.6)" />
  </radialGradient>
  
  <rect width="1024" height="512" fill="url(#atmosphereGlow)"/>
</svg> 